<svg enable-background="new 0 0 512 512" viewBox="0 0 512 512" xmlns="http://www.w3.org/2000/svg"><g id="_x33_0_Sun"><g><path d="m364.133 256.06c0 59.731-48.463 108.072-108.193 108.072s-108.071-48.341-108.071-108.072c0-59.73 48.341-108.193 108.071-108.193s108.193 48.463 108.193 108.193z" fill="#fefdfe"/><path d="m280.585 105.568h-49.167l24.619-93.079z" fill="#b8daff"/><path d="m231.418 406.432h49.167l-24.62 93.079z" fill="#b8daff"/><path d="m379.756 167.012-34.766-34.766 83.225-48.409z" fill="#b8daff"/><path d="m132.247 344.988 34.766 34.766-83.225 48.409z" fill="#b8daff"/><path d="m406.433 280.583v-49.166l93.079 24.619z" fill="#b8daff"/><path d="m105.57 231.417v49.166l-93.079-24.619z" fill="#b8daff"/><path d="m344.989 379.754 34.766-34.766 48.408 83.225z" fill="#b8daff"/><path d="m167.013 132.246-34.766 34.766-48.408-83.225z" fill="#b8daff"/><g fill="#3f8cf4"><path d="m255.939 141.394c-63.16 0-114.545 51.441-114.545 114.667 0 63.16 51.386 114.545 114.545 114.545 63.23 0 114.672-51.386 114.672-114.545 0-63.226-51.441-114.667-114.672-114.667zm0 216.26c-56.02 0-101.593-45.572-101.593-101.593 0-56.086 45.572-101.714 101.593-101.714 56.086 0 101.719 45.628 101.719 101.714.001 56.02-45.632 101.593-101.719 101.593z"/><path d="m231.42 112.043h49.165c2.009 0 3.906-.931 5.13-2.525 1.224-1.589 1.644-3.663 1.133-5.601l-24.549-93.077c-.754-2.844-3.324-4.827-6.264-4.827s-5.51 1.978-6.259 4.822l-24.615 93.077c-.516 1.943-.101 4.012 1.128 5.606 1.225 1.594 3.123 2.525 5.131 2.525zm24.605-74.19 16.155 61.237h-32.346z"/><path d="m280.585 399.957h-49.165c-2.009 0-3.906.931-5.13 2.525-1.224 1.589-1.644 3.658-1.133 5.601l24.544 93.077c.749 2.844 3.319 4.827 6.264 4.827 2.94 0 5.51-1.978 6.259-4.822l24.62-93.077c.516-1.943.101-4.012-1.128-5.606-1.225-1.594-3.122-2.525-5.131-2.525zm-24.61 74.19-16.15-61.237h32.346z"/><path d="m379.754 173.487c.278 0 .557-.02.835-.056 1.988-.258 3.749-1.427 4.761-3.162l48.461-83.176c1.477-2.54 1.063-5.758-1.017-7.837-2.074-2.085-5.297-2.494-7.837-1.017l-83.226 48.411c-1.735 1.007-2.904 2.768-3.162 4.761-.263 1.993.42 3.992 1.842 5.414l34.765 34.765c1.218 1.224 2.873 1.897 4.578 1.897zm30.52-71.725-31.886 54.725-22.87-22.875z"/><path d="m136.825 340.41c-1.422-1.427-3.436-2.14-5.414-1.842-1.988.258-3.749 1.427-4.761 3.162l-48.456 83.176c-1.477 2.54-1.063 5.758 1.017 7.837 2.068 2.076 5.291 2.499 7.837 1.017l83.221-48.411c1.735-1.007 2.904-2.768 3.162-4.761.263-1.993-.42-3.992-1.842-5.414zm-35.094 69.828 31.881-54.725 22.87 22.875z"/><path d="m501.165 249.777-93.077-24.62c-1.943-.526-4.017-.096-5.606 1.128-1.594 1.224-2.525 3.122-2.525 5.13v49.17c0 2.009.931 3.906 2.525 5.13 1.555 1.197 3.611 1.654 5.601 1.133l93.077-24.549c2.843-.754 4.827-3.324 4.827-6.264 0-2.939-1.978-5.51-4.822-6.258zm-88.255 22.404v-32.351l61.242 16.196z"/><path d="m109.523 285.715c1.594-1.224 2.525-3.122 2.525-5.13v-49.17c0-2.009-.931-3.906-2.525-5.13-1.589-1.224-3.668-1.639-5.601-1.133l-93.082 24.549c-2.844.754-4.827 3.324-4.827 6.264s1.978 5.51 4.822 6.259l93.082 24.62c1.954.524 4.033.083 5.606-1.129zm-10.428-13.544-61.247-16.196 61.247-16.155z"/><path d="m385.35 341.731c-1.007-1.735-2.768-2.904-4.761-3.162s-3.997.415-5.414 1.842l-34.765 34.765c-1.422 1.422-2.1 3.42-1.842 5.414.258 1.988 1.427 3.749 3.162 4.761l83.176 48.456c2.557 1.489 5.769 1.051 7.837-1.017 2.08-2.074 2.499-5.292 1.017-7.837zm-29.837 36.657 22.875-22.87 31.851 54.751z"/><path d="m131.411 173.432c.278.035.557.056.835.056 1.705 0 3.36-.673 4.579-1.897l34.765-34.765c1.422-1.422 2.1-3.42 1.842-5.414-.258-1.988-1.427-3.749-3.162-4.761l-83.171-48.457c-2.54-1.482-5.753-1.073-7.837 1.017-2.08 2.074-2.499 5.292-1.017 7.837l48.406 83.221c1.006 1.736 2.767 2.904 4.76 3.163zm25.076-39.82-22.87 22.87-31.851-54.751z"/></g></g></g><g id="Layer_1"/></svg>