<svg enable-background="new 0 0 512 512" viewBox="0 0 512 512" xmlns="http://www.w3.org/2000/svg"><g id="_x32_6_Clean_Night"><g><path d="m490.215 288.844c-12.121 118.375-112.105 210.667-233.657 210.667-129.828 0-234.995-105.166-234.995-234.911 0-121.552 92.293-221.619 210.668-233.741-48.571 33.439-80.422 89.45-80.422 152.902 0 102.492 83.013 185.505 185.505 185.505 63.451-.001 119.461-31.852 152.901-80.422z" fill="#fefdfe"/><g fill="#3f8cf4"><path d="m492.452 282.766c-2.788-1.037-5.892-.03-7.572 2.403-33.459 48.603-88.625 77.62-147.567 77.62-98.716 0-179.028-80.312-179.028-179.031 0-58.94 29.017-114.1 77.62-147.565 2.436-1.675 3.425-4.791 2.406-7.569-1.025-2.773-3.774-4.533-6.739-4.205-123.416 12.635-216.486 115.887-216.486 240.182 0 133.099 108.325 241.386 241.472 241.386 124.24 0 227.462-93.067 240.101-216.487.301-2.94-1.432-5.712-4.207-6.734zm-235.894 210.269c-126.006 0-228.519-102.473-228.519-228.433 0-109.425 76.211-201.622 180.865-223.571-40.186 36.182-63.572 87.932-63.572 142.728 0 105.858 86.123 191.983 191.981 191.983 54.799 0 106.551-23.386 142.73-63.569-21.947 104.653-114.106 180.862-223.485 180.862z"/><path d="m334.069 210.291c3.577 0 6.476-2.899 6.476-6.476v-30.264l30.257.002c3.577 0 6.476-2.899 6.476-6.476s-2.899-6.476-6.476-6.476l-30.257-.002v-30.265c0-3.577-2.899-6.476-6.476-6.476s-6.476 2.899-6.476 6.476v30.264l-30.269-.002c-3.577 0-6.476 2.899-6.476 6.476s2.899 6.476 6.476 6.476l30.269.002v30.265c0 3.577 2.899 6.476 6.476 6.476z"/><path d="m387.56 49.227v-11.892l11.89.002c3.577 0 6.476-2.899 6.476-6.476s-2.899-6.476-6.476-6.476l-11.89-.002v-11.894c0-3.577-2.899-6.476-6.476-6.476s-6.476 2.899-6.476 6.476v11.892l-11.895-.002c-3.577 0-6.476 2.899-6.476 6.476s2.899 6.476 6.476 6.476l11.895.002v11.894c0 3.577 2.899 6.476 6.476 6.476 3.577.001 6.476-2.899 6.476-6.476z"/><path d="m490.438 136.754-24.782-.002v-24.785c0-3.577-2.899-6.476-6.476-6.476s-6.476 2.899-6.476 6.476v24.784l-24.795-.002c-3.577 0-6.476 2.899-6.476 6.476s2.899 6.476 6.476 6.476l24.795.002v24.79c0 3.577 2.899 6.476 6.476 6.476s6.476-2.899 6.476-6.476v-24.789l24.782.002c3.577 0 6.476-2.899 6.476-6.476s-2.899-6.476-6.476-6.476z"/></g></g></g><g id="Layer_1"/></svg>