<svg enable-background="new 0 0 512 512" viewBox="0 0 512 512" xmlns="http://www.w3.org/2000/svg"><g id="_x32_9_Mostly_Sunny"><g><path d="m372.266 41.562v-29.073c0-3.577-2.899-6.476-6.476-6.476s-6.476 2.899-6.476 6.476v29.073c0 3.577 2.899 6.476 6.476 6.476s6.476-2.899 6.476-6.476z" fill="#3f8cf4"/><g><path d="m431.336 146.251c0 36.208-29.378 65.513-65.586 65.513s-65.512-29.304-65.512-65.513c0-36.208 29.304-65.586 65.512-65.586s65.586 29.378 65.586 65.586z" fill="#fefdfe"/><path d="m351.028 401.309c0 37.234-30.171 67.474-67.474 67.474-12.206 0-23.657-3.223-33.532-8.914-20.296 51.732-93.32 53.239-115.475 2.126-12.891 13.92-31.269 22.56-51.634 22.56-38.949 0-70.423-31.543-70.423-70.423 0-21.669 9.737-41.006 25.166-53.898-9.278-40.465 35.461-71.53 70.08-49.44 9.668-30.24 37.988-52.115 71.451-52.115 45.779 0 79.808 40.704 74.812 81.943 44.651-21.637 97.029 10.648 97.029 60.687z" fill="#b8daff"/><g fill="#3f8cf4"><path d="m322.879 338.71c-18.776-11.764-41.277-14.476-61.935-7.832-.935-41.854-36.665-78.673-81.754-78.673-32.994 0-62.203 19.545-74.923 49.362-16.879-7.62-36.156-5.819-51.867 5.272-16.773 11.824-24.909 31.081-21.802 50.976-15.67 14.491-24.585 34.8-24.585 56.319 0 42.4 34.497 76.897 76.902 76.897 18.291 0 36.004-6.603 49.827-18.351 12.335 20.815 34.143 33.308 58.945 33.308.43 0 .865-.005 1.3-.01 26.103-.46 48.563-14.547 60.144-37.249 9.487 4.291 19.874 6.532 30.424 6.532 40.776 0 73.952-33.176 73.952-73.952 0-25.613-12.943-49.014-34.628-62.599zm-39.324 123.597c-10.686 0-21.165-2.783-30.297-8.05-1.634-.941-3.608-1.128-5.373-.501-1.781.622-3.198 1.993-3.891 3.744-8.434 21.509-28.066 35.119-51.234 35.524-22.971.435-43.108-12.467-52.271-33.606-.87-2.009-2.692-3.441-4.852-3.81-.359-.061-.729-.091-1.088-.091-1.786 0-3.516.739-4.751 2.074-12.234 13.211-28.886 20.487-46.883 20.487-35.261 0-63.949-28.683-63.949-63.944 0-18.964 8.328-36.799 22.844-48.932 1.867-1.563 2.702-4.043 2.16-6.416-4.392-19.141 5.328-33.92 15.892-41.363 10.615-7.483 27.853-11.713 44.388-1.169 1.7 1.083 3.8 1.31 5.687.632 1.887-.683 3.355-2.206 3.967-4.119 9.107-28.476 35.342-47.611 65.285-47.611 41.457 0 72.959 36.892 68.381 74.686-.283 2.353.739 4.675 2.666 6.051 1.933 1.381 4.458 1.599 6.588.557 19.075-9.249 41.186-8.035 59.178 3.233 17.876 11.207 28.552 30.505 28.552 51.624 0 33.638-27.363 61-60.999 61z"/><path d="m365.749 74.186c-39.693 0-71.989 32.326-71.989 72.065 0 39.693 32.296 71.989 71.989 71.989 39.739 0 72.065-32.296 72.065-71.989 0-39.738-32.327-72.065-72.065-72.065zm0 131.101c-32.554 0-59.036-26.482-59.036-59.036 0-32.594 26.482-59.112 59.036-59.112 32.594 0 59.112 26.518 59.112 59.112 0 32.554-26.518 59.036-59.112 59.036z"/><path d="m365.789 244.388c-3.577 0-6.476 2.899-6.476 6.476v29.073c0 3.577 2.899 6.476 6.476 6.476s6.476-2.899 6.476-6.476v-29.073c.001-3.577-2.898-6.476-6.476-6.476z"/><path d="m444.366 76.792 20.557-20.557c2.53-2.53 2.53-6.628 0-9.158s-6.628-2.53-9.158 0l-20.557 20.557c-2.53 2.53-2.53 6.628 0 9.158s6.628 2.53 9.158 0z"/><path d="m266.651 236.191c-2.53 2.53-2.53 6.628 0 9.158s6.628 2.53 9.158 0l20.557-20.557c2.53-2.53 2.53-6.628 0-9.158s-6.628-2.53-9.158 0z"/><path d="m499.511 139.739h-29.073c-3.577 0-6.476 2.899-6.476 6.476s2.899 6.476 6.476 6.476h29.073c3.577 0 6.476-2.899 6.476-6.476s-2.899-6.476-6.476-6.476z"/><path d="m232.063 139.739c-3.577 0-6.476 2.899-6.476 6.476s2.899 6.476 6.476 6.476h29.073c3.577 0 6.476-2.899 6.476-6.476s-2.899-6.476-6.476-6.476z"/><path d="m444.366 215.634c-2.53-2.53-6.628-2.53-9.158 0s-2.53 6.628 0 9.158l20.557 20.557c2.53 2.53 6.628 2.53 9.158 0s2.53-6.628 0-9.158z"/><path d="m296.366 67.634-20.557-20.557c-2.53-2.53-6.628-2.53-9.158 0s-2.53 6.628 0 9.158l20.557 20.557c2.53 2.53 6.628 2.53 9.158 0s2.53-6.628 0-9.158z"/></g></g></g></g><g id="Layer_1"/></svg>