<svg enable-background="new 0 0 512 512" viewBox="0 0 512 512" xmlns="http://www.w3.org/2000/svg"><g id="_x30_1_Cloudy_Night"><g><path d="m499.486 204.453c-7.125 69.579-65.893 123.827-137.339 123.827-76.311 0-138.126-61.815-138.126-138.077 0-71.446 54.248-130.264 123.827-137.389-28.549 19.655-47.27 52.577-47.27 89.873 0 60.243 48.794 109.036 109.036 109.036 37.295 0 70.217-18.721 89.872-47.27z" fill="#fefdfe"/><path d="m380.131 381.172c0 43.142-34.907 78.049-77.943 78.049-39.345 0 112.761 0-237.442 0-28.903 0-52.281-23.377-52.281-52.281 0-32.274 29.394-54.873 53.663-52.175v-.053c0-29.745 25.722-54.294 57.487-50.421-.053-.372-.053-.744-.053-1.116 0-46.49 37.67-84.159 84.266-84.159 46.49 0 84.159 37.67 84.159 84.159v.744c45.803-6.545 88.144 29.735 88.144 77.253z" fill="#b8daff"/><g fill="#3f8cf4"><path d="m224.033 196.678c3.577 0 6.476-2.899 6.476-6.476 0-59.696 39.397-110.505 94.79-126.469-19.854 21.22-31.221 49.365-31.221 78.958 0 63.678 51.831 115.487 115.54 115.487 29.543 0 57.632-11.306 78.829-31.059-13.593 45.911-52.033 82.252-99.857 91.962-3.506.711-5.771 4.131-5.06 7.635.625 3.071 3.324 5.191 6.34 5.191.428 0 .863-.043 1.295-.132 62.148-12.616 108.277-63.519 114.788-126.661.301-2.945-1.427-5.717-4.202-6.742-2.78-1.025-5.892-.033-7.572 2.398-19.199 27.836-50.812 44.454-84.562 44.454-56.567 0-102.587-45.997-102.587-102.534 0-33.733 16.639-65.343 44.505-84.562 2.436-1.677 3.423-4.794 2.401-7.569s-3.792-4.513-6.739-4.205c-73.906 7.595-129.641 69.434-129.641 143.846 0 3.579 2.899 6.478 6.477 6.478z"/><path d="m64.765 465.68h237.783c46.354-.169 84.066-38.079 84.066-84.504 0-48.641-41.173-86.919-88.354-84.36-3.314-47.228-43.004-84.284-90.446-84.284-48.074 0-87.537 37.565-90.535 84.871-30.53-.016-54.006 22.705-57.26 50.71-11.797.574-24.102 5.808-33.998 14.668-12.902 11.546-20.008 27.226-20.008 44.145-.001 32.398 26.355 58.754 58.752 58.754zm-30.105-93.247c8.309-7.439 19.713-12.455 30.735-11.245 1.834.22 3.663-.405 5.034-1.634 1.374-1.23 2.158-3.01 2.158-4.852 0-25.707 22.205-47.423 50.247-43.984 1.993.256 4.002-.546 5.411-1.983 1.412-1.434 2.08-3.539 1.801-5.533 0-42.853 34.886-77.716 77.767-77.716 68.822 0 103.976 83.674 54.968 132.687-2.53 2.53-2.53 6.628 0 9.158s6.628 2.53 9.158 0c15.983-15.981 24.665-36.498 26.195-57.446 40.609-2.657 75.527 30.153 75.527 71.291 0 39.311-31.921 71.407-71.136 71.551h-237.76c-25.255 0-45.8-20.545-45.8-45.8 0-13.186 5.573-25.437 15.695-34.494z"/></g></g></g><g id="Layer_1"/></svg>