<svg enable-background="new 0 0 512 512" viewBox="0 0 512 512" xmlns="http://www.w3.org/2000/svg"><g id="_x30_5_Party_Sunny"><g><ellipse cx="352.031" cy="202.86" fill="#fefdfe" rx="77.28" ry="77.28" transform="matrix(.23 -.973 .973 .23 73.718 498.867)"/><path d="m424.514 337.102c0 45.317-36.72 82.121-82.121 82.121-14.855 0-28.793-3.922-40.81-10.849-24.702 62.962-113.577 64.795-140.541 2.587-15.689 16.942-38.056 27.457-62.842 27.457-47.403 0-85.71-38.39-85.71-85.709 0-26.372 11.851-49.907 30.629-65.597-11.291-49.249 43.159-87.056 85.292-60.172 11.767-36.805 46.235-63.427 86.961-63.427 55.716 0 97.132 49.539 91.051 99.73 54.343-26.336 118.091 12.958 118.091 73.859z" fill="#b8daff"/><g fill="#3f8cf4"><path d="m283.14 167.218c3.016 1.907 7.028.999 8.93-2.026 13.079-20.752 35.493-33.141 59.962-33.141 39.055 0 70.825 31.772 70.825 70.828 0 17-6.117 33.394-17.223 46.159-2.348 2.697-2.059 6.788.638 9.135 2.697 2.351 6.794 2.061 9.138-.635 13.155-15.123 20.401-34.535 20.401-54.659 0-46.197-37.583-83.78-83.778-83.78-28.946 0-55.454 14.65-70.921 39.187-1.908 3.025-1.003 7.025 2.028 8.932z"/><path d="m352.032 88.67c3.577 0 6.476-2.899 6.476-6.476v-26.814c0-3.577-2.899-6.476-6.476-6.476s-6.476 2.899-6.476 6.476v26.814c0 3.576 2.899 6.476 6.476 6.476z"/><path d="m441.932 122.117 18.964-18.961c2.53-2.527 2.53-6.628 0-9.158s-6.628-2.53-9.158 0l-18.964 18.961c-2.53 2.527-2.53 6.628 0 9.158 2.531 2.53 6.628 2.529 9.158 0z"/><path d="m472.7 209.337h26.811c3.577 0 6.476-2.899 6.476-6.476s-2.899-6.476-6.476-6.476h-26.811c-3.577 0-6.476 2.899-6.476 6.476s2.899 6.476 6.476 6.476z"/><path d="m460.896 311.724c2.53-2.53 2.53-6.631 0-9.158l-18.964-18.961c-2.53-2.53-6.628-2.53-9.158 0s-2.53 6.631 0 9.158l18.964 18.961c2.53 2.531 6.628 2.53 9.158 0z"/><path d="m262.127 122.117c2.53 2.53 6.628 2.53 9.158 0 2.53-2.527 2.53-6.628 0-9.158l-18.959-18.961c-2.53-2.53-6.628-2.53-9.158 0-2.53 2.527-2.53 6.628 0 9.158z"/><path d="m98.2 444.895c22.495 0 44.267-8.328 61.009-23.102 14.597 25.779 41.12 41.307 71.377 41.305 32.266 0 60.204-17.394 74.134-45.785 11.693 5.502 24.58 8.386 37.674 8.386 48.851 0 88.595-39.744 88.595-88.597 0-30.682-15.508-58.717-41.484-74.992-23.042-14.435-50.769-17.499-76.011-8.786-.02-22.639-8.677-45.125-24.529-63.01-18.736-21.149-45.562-33.277-73.593-33.277-40.072 0-75.495 24.036-90.451 60.567-20.39-9.765-43.928-7.812-63.048 5.669-20.173 14.225-29.852 37.479-25.83 61.422-19.136 17.4-30.029 41.97-30.029 68.014-.001 50.83 41.351 92.186 92.186 92.186zm-50.926-152.815c1.867-1.561 2.702-4.04 2.16-6.416-4.599-20.056 3.026-39.908 19.905-51.806 16.96-11.961 38.266-12.518 55.585-1.46 1.7 1.083 3.805 1.308 5.687.632 1.887-.683 3.355-2.206 3.967-4.119 11.273-35.246 43.741-58.925 80.793-58.925 24.327 0 47.616 10.539 63.898 28.913 15.892 17.934 23.446 41.102 20.724 63.562-.283 2.353.739 4.673 2.666 6.049 1.933 1.381 4.458 1.589 6.588.559 23.639-11.46 51.077-9.968 73.38 4.012 22.171 13.894 35.407 37.823 35.407 64.017 0 41.709-33.935 75.644-75.642 75.644-13.251 0-26.249-3.451-37.578-9.983-1.634-.944-3.608-1.121-5.373-.501-1.781.622-3.198 1.991-3.891 3.747-10.479 26.71-34.861 43.619-63.635 44.125-28.536.435-53.551-15.493-64.936-41.747-.87-2.009-2.692-3.441-4.852-3.81-2.233-.372-4.399.428-5.839 1.986-14.936 16.128-36.106 25.379-58.09 25.379-43.69 0-79.234-35.544-79.234-79.234.001-23.493 10.318-45.589 28.31-60.624z"/></g></g></g><g id="Layer_1"/></svg>