<svg enable-background="new 0 0 512 512" viewBox="0 0 512 512" xmlns="http://www.w3.org/2000/svg"><g id="_x32_7_Very_Cloudy"><g><path d="m499.5 284.348c0 28.31-22.94 51.302-51.302 51.302-9.28 0-17.987-2.45-25.495-6.778-15.432 39.333-70.954 40.479-87.798 1.616-9.801 10.584-23.774 17.153-39.259 17.153-29.614 0-53.545-23.983-53.545-53.544 0-16.475 7.404-31.178 19.134-40.98-7.054-30.767 26.962-54.386 53.284-37.59 7.351-22.992 28.884-39.624 54.326-39.624 34.807 0 60.68 30.948 56.881 62.303 33.949-16.452 73.774 8.096 73.774 46.142z" fill="#fefdfe"/><path d="m197.93 185.422c0 20.397-16.528 36.963-36.963 36.963-6.686 0-12.96-1.765-18.369-4.883-11.118 28.339-51.121 29.164-63.258 1.164-7.062 7.626-17.129 12.358-28.285 12.358-21.336 0-38.578-17.279-38.578-38.578 0-11.87 5.334-22.463 13.786-29.525-5.082-22.167 19.426-39.184 38.39-27.083 5.296-16.566 20.81-28.549 39.141-28.549 25.078 0 43.719 22.298 40.982 44.889 24.461-11.854 53.154 5.832 53.154 33.244z" fill="#fefdfe"/><path d="m342.155 74.148c0 15.863-12.854 28.745-28.745 28.745-5.2 0-10.079-1.373-14.285-3.798-8.647 22.039-39.756 22.681-49.195.906-5.492 5.93-13.321 9.611-21.997 9.611-16.593 0-30.002-13.438-30.002-30.002 0-9.231 4.148-17.469 10.721-22.962-3.952-17.239 15.107-30.473 29.856-21.062 4.119-12.883 16.184-22.202 30.44-22.202 19.503 0 34 17.341 31.871 34.91 19.021-9.218 41.336 4.536 41.336 25.854z" fill="#b8daff"/><path d="m451.702 395.433c0 39.121-31.7 70.894-70.894 70.894-12.825 0-24.856-3.386-35.231-9.366-21.325 54.354-98.05 55.937-121.327 2.233-13.544 14.626-32.853 23.703-54.251 23.703-40.923 0-73.992-33.141-73.992-73.992 0-22.767 10.231-43.084 26.442-56.629-9.748-42.516 37.258-75.155 73.632-51.946 10.158-31.773 39.914-54.756 75.073-54.756 48.099 0 83.853 42.767 78.604 86.096 46.911-22.734 101.944 11.188 101.944 63.763z" fill="#b8daff"/><g fill="#3f8cf4"><path d="m478.928 235.421c-14.089-8.824-30.859-11.111-46.438-6.694-.784-13.621-6.322-26.963-15.867-37.725-12.166-13.727-29.576-21.595-47.768-21.595-25.195 0-47.558 14.617-57.784 37.057-14.845-6.041-31.757-3.016-44.039 8.465-2.616 2.439-2.755 6.537-.314 9.153 2.439 2.611 6.537 2.758 9.153.309 8.192-7.65 22.24-11.683 35.144-3.42 1.692 1.083 3.792 1.316 5.687.638 1.892-.683 3.36-2.206 3.972-4.119 6.722-21.013 26.083-35.129 48.181-35.129 14.488 0 28.367 6.279 38.076 17.233 9.482 10.691 13.992 24.484 12.381 37.841-.283 2.353.741 4.67 2.672 6.046 1.925 1.381 4.452 1.589 6.588.551 14-6.795 30.257-5.91 43.483 2.368 13.145 8.227 20.993 22.404 20.993 37.922 0 22.126-15.844 40.766-37.674 44.333-3.532.577-5.925 3.906-5.351 7.433.519 3.177 3.266 5.434 6.385 5.434.347 0 .698-.025 1.05-.086 28.126-4.589 48.542-28.613 48.542-57.114 0-20.005-10.119-38.286-27.072-48.901z"/><path d="m111.405 245.687c14.478-.258 27.059-7.615 34.196-19.626 4.872 1.842 10.084 2.798 15.366 2.798 23.952 0 43.44-19.485 43.44-43.437 0-15.042-7.605-28.789-20.342-36.774-9.95-6.233-21.683-8.136-32.794-5.586-2.5-23.266-22.84-42.248-47.475-42.248-18.286 0-34.58 10.281-42.534 26.219-21.225-7.374-44.516 10.02-41.962 33.475-8.493 8.404-13.297 19.844-13.3 31.936 0 24.843 20.213 45.056 45.056 45.056 9.598 0 18.926-3.102 26.583-8.692 7.498 10.615 19.495 16.884 32.997 16.884.256 0 .511 0 .769-.005zm-26.12-29.599c-.87-2.009-2.697-3.441-4.855-3.81-.362-.061-.726-.091-1.088-.091-1.789 0-3.516.739-4.754 2.074-6.137 6.633-14.496 10.286-23.532 10.286-17.701 0-32.104-14.4-32.104-32.104.003-9.517 4.179-18.468 11.465-24.554 1.87-1.563 2.704-4.043 2.158-6.416-3.769-16.45 14.462-29.198 28.595-20.178 1.692 1.083 3.792 1.316 5.685.632 1.89-.683 3.357-2.206 3.967-4.119 4.597-14.38 17.848-24.043 32.974-24.043 21.316 0 36.811 18.985 34.555 37.634-.286 2.353.736 4.675 2.666 6.051 1.933 1.381 4.458 1.594 6.588.557 9.53-4.619 20.588-4.017 29.584 1.619 8.933 5.596 14.266 15.24 14.266 25.794 0 16.808-13.676 30.484-30.487 30.484-5.348 0-10.58-1.386-15.131-4.017-1.637-.941-3.597-1.123-5.378-.501s-3.2 1.988-3.888 3.744c-4.996 12.74-16.393 17.446-25.392 17.603-8.881.396-20.47-4.133-25.894-16.645z"/><path d="m227.932 116.089c7.286 0 14.38-2.206 20.347-6.218 13.562 17.556 41.5 16.75 53.792-2.368 3.625 1.229 7.46 1.867 11.339 1.867 19.421 0 35.223-15.801 35.223-35.22 0-22.386-20.354-38.524-41.537-34.669-1.075-7.078-4.25-13.879-9.239-19.51-7.359-8.303-17.896-13.064-28.908-13.064-14.349 0-27.18 7.837-33.796 20.087-7.506-2.201-15.589-.901-22.359 3.866-7.782 5.485-11.819 14.197-11.055 23.381-6.578 6.76-10.284 15.816-10.284 25.369-.001 20.116 16.362 36.479 36.477 36.479zm-15.126-54.472c1.87-1.563 2.702-4.043 2.158-6.416-1.237-5.404.741-10.544 5.292-13.757 3.532-2.499 9.267-3.906 14.767-.4 1.692 1.083 3.792 1.316 5.685.632 1.89-.683 3.355-2.206 3.967-4.119 3.385-10.585 13.14-17.699 24.274-17.699 7.417 0 14.24 3.091 19.214 8.703 4.764 5.378 7.035 12.285 6.228 18.953-.286 2.353.736 4.675 2.666 6.051 1.925 1.381 4.46 1.594 6.585.557 14.749-7.158 32.038 3.528 32.038 20.026 0 12.28-9.99 22.268-22.27 22.268-3.904 0-7.726-1.012-11.048-2.935-1.637-.941-3.595-1.118-5.378-.501-1.778.622-3.2 1.988-3.888 3.749-6.325 16.116-29.819 17.777-37.224.693-.87-2.009-2.697-3.441-4.852-3.81-2.232-.372-4.396.422-5.841 1.983-4.503 4.862-10.628 7.539-17.246 7.539-12.97 0-23.525-10.554-23.525-23.527-.001-6.97 3.06-13.528 8.398-17.99z"/><path d="m421.954 329.945c-19.778-12.396-43.505-15.194-65.221-8.065-.74-44.221-38.463-82.781-85.582-82.781-34.646 0-65.305 20.588-78.546 51.978-17.704-8.111-37.96-6.279-54.475 5.363-17.57 12.386-26.067 32.579-22.746 53.42-16.479 15.169-25.855 36.47-25.855 59.046 0 44.368 36.098 80.469 80.469 80.469 19.272 0 37.935-7.003 52.438-19.454 13.619 23.259 37.864 35.718 63.208 35.154 27.408-.481 50.976-15.326 63.046-39.233 10.003 4.569 20.975 6.962 32.119 6.962 42.663 0 77.37-34.709 77.37-77.372 0-26.79-13.542-51.274-36.225-65.487zm-41.145 129.907c-11.288 0-22.351-2.94-31.997-8.5-1.637-.941-3.597-1.123-5.376-.501-1.781.622-3.2 1.994-3.888 3.749-8.913 22.718-29.655 37.097-54.131 37.527-24.494.379-45.544-13.175-55.224-35.509-.87-2.009-2.697-3.441-4.852-3.81-.364-.061-.729-.091-1.09-.091-1.789 0-3.516.739-4.751 2.074-12.728 13.747-30.77 21.63-49.501 21.63-37.229 0-67.516-30.287-67.516-67.516 0-20.021 8.791-38.853 24.117-51.659 1.872-1.563 2.707-4.043 2.16-6.416-4.647-20.269 5.649-35.918 16.833-43.806 11.237-7.918 29.49-12.411 47.002-1.235 1.695 1.083 3.79 1.31 5.685.632 1.89-.683 3.355-2.206 3.967-4.119 9.611-30.059 37.302-50.252 68.905-50.252 43.865 0 76.996 39.028 72.176 78.84-.286 2.353.736 4.675 2.664 6.051 1.93 1.381 4.46 1.594 6.588.557 20.142-9.76 43.508-8.475 62.497 3.42 18.88 11.829 30.15 32.21 30.15 54.513-.001 35.52-28.899 64.421-64.418 64.421z"/></g></g></g><g id="Layer_1"/></svg>