<svg enable-background="new 0 0 512 512" viewBox="0 0 512 512" xmlns="http://www.w3.org/2000/svg"><g id="_x32_0_Intense_Rain"><g><path d="m125.247 384.365c-4.468 14.05-19.446 21.798-33.498 17.329-14.022-4.46-21.802-19.446-17.334-33.496 4.459-14.021 41.656-42.982 41.656-42.982s13.635 45.129 9.176 59.149z" fill="#fefdfe"/><path d="m400.074 384.365c-4.468 14.05-19.446 21.798-33.498 17.329-14.022-4.46-21.802-19.446-17.334-33.496 4.459-14.021 41.656-42.982 41.656-42.982s13.635 45.129 9.176 59.149z" fill="#fefdfe"/><path d="m262.66 384.365c-4.468 14.05-19.446 21.798-33.498 17.329-14.022-4.46-21.802-19.446-17.334-33.496 4.459-14.021 41.656-42.982 41.656-42.982s13.635 45.129 9.176 59.149z" fill="#fefdfe"/><path d="m178.236 480.927c-4.468 14.05-19.446 21.798-33.498 17.33-14.022-4.46-21.802-19.446-17.334-33.496 4.459-14.021 41.656-42.982 41.656-42.982s13.635 45.127 9.176 59.148z" fill="#fefdfe"/><path d="m315.649 480.927c-4.468 14.05-19.446 21.798-33.498 17.33-14.022-4.46-21.802-19.446-17.334-33.496 4.459-14.021 41.656-42.982 41.656-42.982s13.635 45.127 9.176 59.148z" fill="#fefdfe"/><path d="m470.252 201.483c0 50.28-40.682 90.963-90.839 90.963-45.855 0 131.416 0-276.727 0-33.685 0-60.931-27.245-60.931-60.93 0-37.614 34.257-63.952 62.541-60.807v-.062c0-34.666 29.978-63.277 66.999-58.763-.062-.433-.062-.867-.062-1.3 0-54.181 43.902-98.083 98.207-98.083 54.181 0 98.083 43.902 98.083 98.083v.867c53.383-7.63 102.729 34.653 102.729 90.032z" fill="#b8daff"/><g fill="#3f8cf4"><path d="m118.036 319.043c-2.029-.643-4.26-.248-5.94 1.063-6.476 5.044-39.03 30.965-43.852 46.129-5.543 17.455 4.074 36.076 21.544 41.631 17.457 5.562 36.071-4.064 41.631-21.539 4.822-15.164-6.775-55.125-9.148-62.983-.617-2.044-2.201-3.653-4.235-4.301zm1.037 63.357c-3.419 10.766-14.857 16.486-25.359 13.12-10.661-3.389-16.5-14.742-13.125-25.359 2.226-7.008 18.124-22.227 31.921-33.743 4.61 17.365 8.794 38.97 6.563 45.982z"/><path d="m364.613 407.866c17.381 5.538 36.04-3.982 41.636-21.539 4.822-15.169-6.78-55.125-9.153-62.983-.617-2.044-2.201-3.653-4.235-4.301-2.029-.643-4.26-.248-5.94 1.063-6.476 5.044-39.03 30.965-43.852 46.129-5.553 17.487 4.107 36.083 21.544 41.631zm-9.198-37.705c2.226-7.008 18.124-22.227 31.921-33.743 4.609 17.365 8.799 38.969 6.567 45.982-3.42 10.744-14.84 16.496-25.364 13.12-10.613-3.377-16.513-14.7-13.124-25.359z"/><path d="m255.446 319.043c-2.034-.643-4.26-.248-5.94 1.063-6.476 5.044-39.025 30.965-43.852 46.129-5.553 17.487 4.107 36.084 21.544 41.631 17.46 5.563 36.076-4.064 41.636-21.539 4.822-15.169-6.78-55.125-9.153-62.983-.617-2.044-2.201-3.653-4.235-4.301zm1.042 63.357c-3.404 10.717-14.811 16.506-25.364 13.12-10.613-3.377-16.513-14.7-13.125-25.359 2.231-7.008 18.129-22.227 31.921-33.743 4.61 17.365 8.8 38.97 6.568 45.982z"/><path d="m142.778 504.429c17.321 5.502 36.065-4.03 41.631-21.539 4.822-15.169-6.78-55.125-9.153-62.983-.617-2.044-2.201-3.653-4.235-4.301-2.034-.638-4.255-.248-5.94 1.063-6.476 5.044-39.025 30.965-43.847 46.129-5.557 17.456 4.077 36.078 21.544 41.631zm-9.199-37.704c2.226-7.008 18.124-22.227 31.916-33.743 4.609 17.365 8.799 38.969 6.567 45.982-3.374 10.625-14.679 16.508-25.359 13.12-10.554-3.356-16.536-14.648-13.124-25.359z"/><path d="m280.188 504.429c17.5 5.559 36.121-4.192 41.636-21.539 4.822-15.169-6.78-55.125-9.153-62.983-.617-2.044-2.201-3.653-4.235-4.301-2.034-.638-4.26-.248-5.94 1.063-6.476 5.044-39.025 30.965-43.852 46.129-5.541 17.449 4.072 36.073 21.544 41.631zm-9.199-37.704c2.231-7.008 18.129-22.227 31.921-33.743 4.609 17.365 8.799 38.969 6.567 45.982-3.362 10.586-14.653 16.525-25.364 13.12-10.612-3.378-16.512-14.7-13.124-25.359z"/><path d="m373.811 104.281c-3.254-54.789-49.142-98.274-104.365-98.274-55.854 0-101.638 43.898-104.563 98.952-34.869-.776-63.323 25.538-66.747 59.046-30.667.935-62.876 29.235-62.876 67.531 0 37.168 30.236 67.41 67.405 67.41h277.163c53.44-.223 96.913-43.943 96.913-97.459-.001-56.456-48.13-100.78-102.93-97.206zm5.991 181.713h-277.137c-30.024 0-54.452-24.428-54.452-54.457 0-31.489 27.288-54.604 51.371-54.604 1.341 0 2.666.071 3.972.218 1.827.187 3.658-.405 5.034-1.634s2.16-3.016 2.16-4.857c0-30.468 26.264-56.427 59.775-52.327 2.115.283 4.189-.496 5.596-2.044 1.417-1.553 2.014-3.678 1.568-5.728 0-50.511 41.16-91.6 91.757-91.6 81.382 0 122.012 99.253 64.799 156.475-2.53 2.53-2.53 6.628 0 9.158s6.628 2.53 9.158 0c18.674-18.674 28.692-42.713 30.264-67.199 48.214-3.725 90.121 35.105 90.121 84.093-.001 46.407-37.69 84.313-83.986 84.506z"/></g></g></g><g id="Layer_1"/></svg>