<svg enable-background="new 0 0 512 512" viewBox="0 0 512 512" xmlns="http://www.w3.org/2000/svg"><g id="_x30_9_Drizzle_With_Snow"><g><ellipse cx="333.639" cy="184.208" fill="#fefdfe" rx="86.911" ry="86.911" transform="matrix(.23 -.973 .973 .23 77.705 466.6)"/><path d="m83.037 477.932c-3.776 11.874-16.434 18.422-28.309 14.645-11.851-3.769-18.425-16.434-14.649-28.308 3.768-11.849 35.204-36.324 35.204-36.324s11.522 38.138 7.754 49.987z" fill="#fefdfe"/><path d="m315.297 477.932c-3.776 11.874-16.434 18.422-28.309 14.645-11.851-3.769-18.425-16.434-14.649-28.308 3.768-11.849 35.204-36.324 35.204-36.324s11.522 38.138 7.754 49.987z" fill="#fefdfe"/><path d="m199.167 477.932c-3.776 11.874-16.434 18.422-28.309 14.645-11.851-3.769-18.425-16.434-14.649-28.308 3.768-11.849 35.204-36.324 35.204-36.324s11.522 38.138 7.754 49.987z" fill="#fefdfe"/><path d="m374.605 305.046c0 42.492-34.381 76.874-76.769 76.874-38.752 0 111.062 0-233.865 0-28.468 0-51.493-23.025-51.493-51.493 0-31.788 28.951-54.046 52.854-51.389v-.052c0-29.297 25.335-53.476 56.621-49.662-.052-.366-.052-.733-.052-1.099 0-45.789 37.102-82.891 82.996-82.891 45.789 0 82.891 37.102 82.891 82.891v.733c45.114-6.447 86.817 29.286 86.817 76.088z" fill="#b8daff"/><g fill="#3f8cf4"><path d="m382.534 248.041c-2.838 2.173-3.38 6.239-1.209 9.077s6.238 3.386 9.082 1.209c23.279-17.81 36.632-44.818 36.632-74.104 0-51.51-41.904-93.416-93.416-93.416-31.041 0-59.952 15.338-77.327 41.034-2.004 2.962-1.229 6.987 1.735 8.994 2.96 1.996 6.992 1.23 8.991-1.738 14.966-22.126 39.865-35.337 66.6-35.337 44.368 0 80.464 36.096 80.464 80.464 0 25.217-11.5 48.476-31.552 63.817z"/><path d="m327.161 18.348v30.156c0 3.577 2.899 6.476 6.476 6.476s6.476-2.899 6.476-6.476v-30.156c0-3.577-2.899-6.476-6.476-6.476s-6.476 2.899-6.476 6.476z"/><path d="m455.5 62.349c-2.525-2.527-6.623-2.532-9.158 0l-21.326 21.321c-2.53 2.527-2.53 6.628 0 9.158 2.535 2.535 6.633 2.525 9.158 0l21.326-21.321c2.529-2.527 2.529-6.628 0-9.158z"/><path d="m462.866 184.208c0 3.577 2.899 6.476 6.476 6.476h30.156c3.577 0 6.476-2.899 6.476-6.476s-2.899-6.476-6.476-6.476h-30.156c-3.576 0-6.476 2.899-6.476 6.476z"/><path d="m434.173 275.586c-2.53-2.53-6.628-2.53-9.158 0s-2.53 6.631 0 9.158l21.326 21.324c2.53 2.53 6.628 2.53 9.158 0s2.53-6.631 0-9.158z"/><path d="m211.781 62.349c-2.53 2.527-2.53 6.628 0 9.158l21.321 21.324c2.53 2.53 6.628 2.53 9.158 0 2.53-2.527 2.53-6.628 0-9.158l-21.321-21.324c-2.53-2.53-6.628-2.53-9.158 0z"/><path d="m52.766 498.752c15.208 4.832 31.579-3.578 36.445-18.857 0 0 0 0 0-.003 4.159-13.097-5.707-47.128-7.731-53.817-.617-2.044-2.201-3.653-4.235-4.301-2.029-.638-4.26-.248-5.94 1.063-5.515 4.293-33.232 26.371-37.401 39.473-4.847 15.244 3.618 31.592 18.862 36.442zm-6.516-32.519c1.761-5.545 14.202-17.547 25.455-27.036 3.699 14.245 6.922 31.223 5.161 36.771-2.682 8.44-11.754 13.132-20.173 10.438-8.44-2.684-13.125-11.733-10.443-20.173z"/><path d="m285.025 498.752c15.403 4.884 31.605-3.654 36.445-18.86 4.164-13.099-5.707-47.128-7.731-53.82-.617-2.042-2.201-3.651-4.235-4.298-2.029-.638-4.26-.248-5.94 1.063-5.515 4.293-33.232 26.371-37.396 39.47-4.861 15.265 3.564 31.576 18.857 36.445zm-6.512-32.521c1.761-5.545 14.202-17.544 25.45-27.036 3.704 14.243 6.927 31.223 5.161 36.774v.003c-2.682 8.442-11.675 13.142-20.173 10.436-8.441-2.681-13.139-11.707-10.438-20.177z"/><path d="m168.896 498.752c15.403 4.884 31.605-3.654 36.445-18.86 4.164-13.099-5.707-47.128-7.731-53.82-.617-2.042-2.201-3.651-4.235-4.298-2.034-.638-4.26-.248-5.94 1.063-5.515 4.293-33.232 26.371-37.396 39.47-4.861 15.265 3.564 31.576 18.857 36.445zm-6.512-32.521c1.761-5.545 14.202-17.544 25.45-27.036 3.704 14.243 6.927 31.223 5.161 36.774v.003c-2.671 8.407-11.642 13.153-20.173 10.436-8.441-2.681-13.139-11.707-10.438-20.177z"/><path d="m63.948 388.408h234.267c45.694-.225 82.867-37.621 82.867-83.363 0-24.135-10.499-47.088-28.81-62.975-16.312-14.149-37.204-21.354-58.252-20.241-3.264-46.22-42.192-82.993-89.146-82.993-47.363 0-86.247 36.994-89.237 83.591-.056 0-.111 0-.167 0-13.944 0-27.064 4.918-37.527 14.192-10.453 9.269-17.066 22.035-18.68 35.787-26.352 1.334-53.238 25.542-53.238 58.027 0 31.966 25.987 57.975 57.923 57.975zm.688-102.933c1.857.202 3.663-.412 5.034-1.642 1.371-1.227 2.155-3.008 2.155-4.85 0-12.477 5.363-24.385 14.708-32.67 9.462-8.386 21.777-12.141 34.664-10.587 1.993.266 4.002-.549 5.409-1.988 1.407-1.434 2.074-3.537 1.796-5.528 0-42.139 34.304-76.421 76.472-76.421 68.21 0 101.749 82.864 54.083 130.534-2.53 2.53-2.53 6.628 0 9.158s6.628 2.53 9.158 0c15.746-15.744 24.307-35.953 25.826-56.588 17.967-1.13 35.878 4.849 49.841 16.961 15.472 13.426 24.347 32.814 24.347 53.192 0 38.635-31.39 70.22-69.945 70.41h-234.236c-24.797 0-44.97-20.198-44.97-45.023 0-27.57 25.213-47.246 45.658-44.958z"/></g></g></g><g id="Layer_1"/></svg>