<svg enable-background="new 0 0 512 512" viewBox="0 0 512 512" xmlns="http://www.w3.org/2000/svg"><g id="_x32_2_Drizzle"><g><path d="m154.24 419.061c-4.066 12.786-17.697 19.838-30.485 15.771-12.761-4.059-19.842-17.697-15.775-30.483 4.058-12.76 37.91-39.116 37.91-39.116s12.408 41.068 8.35 53.828z" fill="#fefdfe"/><path d="m404.353 419.061c-4.066 12.786-17.697 19.838-30.485 15.771-12.761-4.059-19.842-17.697-15.775-30.483 4.058-12.76 37.91-39.116 37.91-39.116s12.408 41.068 8.35 53.828z" fill="#fefdfe"/><path d="m285.939 469.121c-7.302 22.961-31.78 35.624-54.744 28.321-22.916-7.288-35.631-31.779-28.328-54.741 7.287-22.913 68.076-70.243 68.076-70.243s22.283 73.749 14.996 96.663z" fill="#fefdfe"/><path d="m477.613 199.222c0 48.749-39.501 88.34-88.34 88.34-15.98 0-30.973-4.219-43.901-11.671-26.573 67.73-122.178 69.702-151.184 2.783-16.877 18.225-40.938 29.536-67.601 29.536-50.993 0-92.201-41.297-92.201-92.2 0-28.37 12.749-53.687 32.948-70.565-12.147-52.978 46.427-93.649 91.751-64.728 12.658-39.592 49.736-68.23 93.547-68.23 59.936 0 104.488 53.291 97.946 107.283 58.459-28.33 127.035 13.94 127.035 79.452z" fill="#b8daff"/><g fill="#3f8cf4"><path d="m126.588 314.685c24.284 0 47.776-9.067 65.758-25.131 15.551 27.894 44.082 44.717 76.649 44.717.554 0 1.111-.005 1.667-.015 34.072-.597 63.299-19.333 77.855-49.397 12.624 6.021 26.576 9.178 40.755 9.178 52.284 0 94.818-42.531 94.818-94.813 0-32.837-16.596-62.841-44.396-80.256-24.866-15.589-54.826-18.781-82.004-9.173.349-55.265-46.57-103.784-105.056-103.784-43.088 0-81.152 25.946-97.044 65.33-21.896-10.676-47.237-8.677-67.797 5.829-21.62 15.24-31.954 40.194-27.547 65.856-20.598 18.635-32.336 45.016-32.336 72.986 0 54.406 44.266 98.673 98.678 98.673zm-55.1-164.272c1.87-1.563 2.702-4.043 2.158-6.416-4.991-21.777 3.289-43.326 21.61-56.243 18.404-12.983 41.527-13.58 60.346-1.579 1.692 1.078 3.79 1.316 5.685.632 1.89-.683 3.355-2.206 3.967-4.119 12.189-38.119 47.303-63.726 87.38-63.726 55.098 0 97.699 49.007 91.516 100.029-.286 2.353.736 4.675 2.664 6.051 1.93 1.376 4.455 1.594 6.59.557 25.587-12.401 55.277-10.777 79.411 4.341 23.995 15.032 38.322 40.933 38.322 69.282 0 45.137-36.725 81.86-81.865 81.86-14.347 0-28.407-3.734-40.664-10.802-1.634-.941-3.595-1.123-5.376-.501s-3.2 1.993-3.888 3.744c-11.349 28.926-37.753 47.232-68.91 47.778-31.084.648-57.979-16.778-70.301-45.203-.87-2.009-2.697-3.441-4.852-3.81-.364-.061-.729-.091-1.09-.091-1.789 0-3.514.739-4.751 2.074-16.161 17.451-39.071 27.459-62.851 27.459-47.27 0-85.726-38.453-85.726-85.721-.001-25.422 11.161-49.329 30.625-65.596z"/><path d="m147.854 359.058c-2.031-.638-4.255-.248-5.943 1.063-5.917 4.609-35.663 28.299-40.105 42.263-5.136 16.161 3.83 33.48 19.986 38.62 16.35 5.186 33.505-3.901 38.62-19.981 4.44-13.965-6.153-50.485-8.321-57.665-.617-2.043-2.203-3.652-4.237-4.3zm.212 58.039c-3.004 9.443-13.018 14.527-22.348 11.561-9.35-2.97-14.539-12.998-11.566-22.348 1.958-6.158 15.844-19.505 28.17-29.852 4.082 15.564 7.705 34.477 5.744 40.639z"/><path d="m397.965 359.058c-2.034-.638-4.255-.248-5.943 1.063-5.917 4.609-35.66 28.299-40.103 42.263-5.136 16.161 3.83 33.485 19.986 38.62 16.276 5.162 33.481-3.826 38.62-19.981 4.44-13.965-6.155-50.485-8.323-57.665-.617-2.043-2.203-3.652-4.237-4.3zm.215 58.039c-3.015 9.478-13.059 14.516-22.348 11.561-9.35-2.97-14.539-12.998-11.566-22.348 1.958-6.158 15.844-19.505 28.167-29.852 4.085 15.564 7.708 34.477 5.747 40.639z"/><path d="m229.233 503.612c26.386 8.391 54.487-6.134 62.879-32.529 7.676-24.135-12.629-92.754-14.969-100.5-.62-2.044-2.203-3.653-4.237-4.301-2.034-.638-4.255-.248-5.943 1.063-6.383 4.974-62.596 49.266-70.268 73.39-8.379 26.345 6.151 54.491 32.538 62.877zm-20.193-58.95c4.774-15.017 38.82-45.132 58.368-61.09 6.742 24.312 17.14 68.558 12.358 83.585-6.195 19.493-26.962 30.356-46.607 24.109-19.535-6.206-30.343-27.046-24.119-46.604z"/></g></g></g><g id="Layer_1"/></svg>