<svg enable-background="new 0 0 512 512" viewBox="0 0 512 512" xmlns="http://www.w3.org/2000/svg"><g id="_x32_1_Rain"><g><path d="m159.086 399.698c-3.873 12.178-16.854 18.893-29.033 15.02-12.154-3.865-18.897-16.854-15.024-29.032 3.865-12.152 36.104-37.254 36.104-37.254s11.818 39.114 7.953 51.266z" fill="#fefdfe"/><path d="m397.288 399.698c-3.873 12.178-16.854 18.893-29.034 15.02-12.154-3.865-18.897-16.854-15.024-29.032 3.865-12.152 36.104-37.254 36.104-37.254s11.819 39.114 7.954 51.266z" fill="#fefdfe"/><path d="m278.187 399.698c-3.873 12.178-16.854 18.893-29.033 15.02-12.154-3.865-18.897-16.854-15.024-29.032 3.865-12.152 36.104-37.254 36.104-37.254s11.818 39.114 7.953 51.266z" fill="#fefdfe"/><path d="m205.014 483.392c-3.873 12.178-16.854 18.893-29.033 15.02-12.154-3.865-18.897-16.854-15.024-29.032 3.865-12.152 36.104-37.254 36.104-37.254s11.817 39.114 7.953 51.266z" fill="#fefdfe"/><path d="m324.115 483.392c-3.873 12.178-16.854 18.893-29.034 15.02-12.154-3.865-18.897-16.854-15.024-29.032 3.865-12.152 36.104-37.254 36.104-37.254s11.818 39.114 7.954 51.266z" fill="#fefdfe"/><path d="m467.06 190.329c0 46.427-37.62 84.133-84.133 84.133-15.219 0-29.498-4.018-41.81-11.115-25.307 64.504-116.36 66.383-143.984 2.651-16.074 17.357-38.988 28.13-64.382 28.13-48.565 0-87.81-39.33-87.81-87.809 0-27.019 12.142-51.13 31.379-67.204-11.568-50.456 44.216-89.189 87.382-61.646 12.055-37.706 47.367-64.981 89.092-64.981 57.082 0 99.512 50.753 93.282 102.174 55.674-26.983 120.984 13.274 120.984 75.667z" fill="#b8daff"/><g fill="#3f8cf4"><path d="m473.536 190.328c0-31.38-15.859-60.048-42.425-76.694-23.641-14.81-52.089-17.916-77.952-8.91.079-51.958-43.979-98.714-100.366-98.714-41.049 0-77.327 24.656-92.584 62.107-20.881-10.054-44.99-8.095-64.584 5.722-20.641 14.552-30.532 38.357-26.389 62.856-19.606 17.795-30.773 42.951-30.773 69.621 0 51.988 42.296 94.287 94.287 94.287 23.072 0 45.4-8.566 62.545-23.76 14.906 26.462 42.079 42.41 73.082 42.41.529 0 1.06-.005 1.591-.015 32.468-.567 60.329-18.367 74.288-46.943 11.996 5.672 25.227 8.642 38.671 8.642 49.962-.001 90.609-40.65 90.609-90.609zm-90.608 77.655c-13.603 0-26.943-3.542-38.577-10.246-1.632-.941-3.597-1.123-5.376-.501s-3.198 1.993-3.886 3.744c-10.762 27.428-35.802 44.788-65.348 45.309-.45.005-.898.01-1.346.01-28.868 0-53.814-16.338-65.32-42.881-.87-2.009-2.697-3.441-4.852-3.81-.364-.061-.729-.091-1.09-.091-1.789 0-3.516.739-4.751 2.074-15.333 16.56-37.067 26.057-59.631 26.057-44.849 0-81.334-36.485-81.334-81.334 0-24.119 10.59-46.807 29.055-62.234 1.872-1.563 2.707-4.043 2.16-6.416-4.726-20.613 3.114-41.014 20.459-53.243 17.428-12.29 39.319-12.857 57.126-1.498 1.69 1.083 3.792 1.31 5.685.632 1.89-.683 3.355-2.206 3.967-4.119 11.569-36.177 44.894-60.478 82.925-60.478 51.961 0 92.762 46.143 86.854 94.919-.286 2.353.736 4.675 2.664 6.051 1.933 1.381 4.458 1.594 6.59.557 24.276-11.769 52.441-10.226 75.331 4.119 22.761 14.263 36.351 38.833 36.351 65.72-.001 42.824-34.836 77.659-77.656 77.659z"/><path d="m165.256 401.659c4.26-13.383-5.854-48.249-7.923-55.1-.617-2.044-2.203-3.653-4.237-4.301-2.029-.643-4.255-.248-5.943 1.063-5.647 4.397-34.039 27.013-38.297 40.401-4.96 15.608 3.667 32.22 19.234 37.168 15.605 4.958 32.209-3.63 37.166-19.231zm-12.34-3.926c-.003 0-.003 0-.003 0-2.807 8.827-12.176 13.592-20.896 10.812-8.759-2.784-13.605-12.133-10.815-20.896 1.827-5.748 14.746-18.2 26.356-27.975 3.83 14.689 7.184 32.311 5.358 38.059z"/><path d="m403.462 401.659c4.255-13.383-5.857-48.249-7.926-55.1-.617-2.044-2.203-3.653-4.237-4.301-2.031-.643-4.255-.248-5.943 1.063-5.647 4.397-34.039 27.013-38.299 40.401-4.943 15.548 3.683 32.22 19.234 37.168 15.592 4.954 32.205-3.618 37.171-19.231zm-44.059-14.01c1.827-5.748 14.749-18.2 26.358-27.975 3.83 14.683 7.187 32.306 5.356 38.059-2.801 8.809-12.162 13.599-20.899 10.812-8.743-2.777-13.595-12.153-10.815-20.896z"/><path d="m284.361 401.659c4.255-13.383-5.857-48.249-7.926-55.1-.617-2.044-2.203-3.653-4.237-4.301-2.031-.643-4.255-.248-5.943 1.063-5.647 4.397-34.039 27.013-38.297 40.401-4.943 15.548 3.683 32.22 19.232 37.168 15.605 4.959 32.208-3.63 37.171-19.231zm-12.346-3.926c-2.797 8.796-12.144 13.602-20.899 10.812-8.743-2.778-13.593-12.153-10.812-20.896 1.827-5.753 14.746-18.2 26.356-27.975 3.83 14.684 7.187 32.306 5.355 38.059z"/><path d="m174.017 504.583c15.686 4.983 32.228-3.699 37.168-19.227 4.258-13.388-5.854-48.249-7.923-55.1-.617-2.044-2.203-3.653-4.237-4.301-2.034-.638-4.255-.243-5.943 1.063-5.647 4.397-34.039 27.013-38.299 40.396-4.943 15.549 3.683 32.221 19.234 37.169zm-6.891-33.242c1.829-5.748 14.751-18.195 26.361-27.97 3.828 14.688 7.182 32.311 5.353 38.059-2.797 8.812-12.158 13.587-20.896 10.807-8.744-2.777-13.596-12.153-10.818-20.896z"/><path d="m293.119 504.583c15.638 4.968 32.214-3.653 37.168-19.227 4.258-13.388-5.857-48.249-7.926-55.1-.62-2.044-2.203-3.653-4.237-4.301-2.031-.638-4.255-.243-5.943 1.063-5.647 4.397-34.036 27.013-38.297 40.396-4.943 15.549 3.684 32.221 19.235 37.169zm-6.891-33.242c1.829-5.748 14.749-18.195 26.358-27.97 3.83 14.688 7.185 32.311 5.356 38.059-2.801 8.808-12.158 13.592-20.896 10.807-8.744-2.777-13.596-12.153-10.818-20.896z"/></g></g></g><g id="Layer_1"/></svg>