<svg enable-background="new 0 0 512 512" viewBox="0 0 512 512" xmlns="http://www.w3.org/2000/svg"><g id="_x30_6_Stormy_With_Sun"><g><ellipse cx="333.639" cy="178.349" fill="#fefdfe" rx="86.911" ry="86.911" transform="matrix(.23 -.973 .973 .23 83.407 462.087)"/><path d="m374.605 299.187c0 42.492-34.381 76.874-76.769 76.874-38.752 0 111.062 0-233.865 0-28.468 0-51.493-23.025-51.493-51.493 0-31.788 28.951-54.046 52.854-51.389v-.052c0-29.297 25.335-53.476 56.621-49.662-.052-.366-.052-.733-.052-1.099 0-45.789 37.102-82.891 82.996-82.891 45.789 0 82.891 37.102 82.891 82.891v.733c45.114-6.447 86.817 29.286 86.817 76.088z" fill="#b8daff"/><path d="m166.861 499.511 19.472-103.166h-58.243l88.071-132.091.15 96.033h56.522z" fill="#fefdfe"/><path d="m83.037 453.743c-3.776 11.874-16.434 18.422-28.309 14.645-11.851-3.769-18.425-16.434-14.649-28.307 3.768-11.849 35.204-36.324 35.204-36.324s11.522 38.137 7.754 49.986z" fill="#fefdfe"/><path d="m315.297 453.743c-3.776 11.874-16.434 18.422-28.309 14.645-11.851-3.769-18.425-16.434-14.649-28.307 3.768-11.849 35.204-36.324 35.204-36.324s11.522 38.137 7.754 49.986z" fill="#fefdfe"/><g fill="#3f8cf4"><path d="m382.527 242.245c-2.836 2.178-3.372 6.244-1.194 9.082 2.165 2.822 6.227 3.38 9.082 1.194 23.274-17.866 36.624-44.894 36.624-74.152 0-51.51-41.904-93.414-93.414-93.414-30.985 0-59.891 15.336-77.324 41.024-2.009 2.96-1.237 6.987 1.72 8.996 2.965 2.016 6.987 1.24 8.996-1.72 15.02-22.133 39.921-35.347 66.608-35.347 44.366 0 80.461 36.096 80.461 80.461 0 25.2-11.503 48.482-31.559 63.876z"/><path d="m340.117 42.645v-30.156c0-3.577-2.899-6.476-6.476-6.476s-6.476 2.899-6.476 6.476v30.156c0 3.577 2.899 6.476 6.476 6.476s6.476-2.899 6.476-6.476z"/><path d="m455.5 56.49c-2.53-2.53-6.628-2.53-9.158 0l-21.324 21.324c-2.53 2.53-2.53 6.628 0 9.158s6.628 2.53 9.158 0l21.324-21.324c2.529-2.53 2.529-6.628 0-9.158z"/><path d="m499.498 171.873h-30.156c-3.577 0-6.476 2.899-6.476 6.476s2.899 6.476 6.476 6.476h30.156c3.577 0 6.476-2.899 6.476-6.476.001-3.577-2.898-6.476-6.476-6.476z"/><path d="m434.176 269.727c-2.53-2.53-6.628-2.53-9.158 0s-2.53 6.628 0 9.158l21.324 21.324c2.53 2.53 6.628 2.53 9.158 0s2.53-6.628 0-9.158z"/><path d="m211.779 56.49c-2.53 2.53-2.53 6.628 0 9.158l21.324 21.324c2.53 2.53 6.628 2.53 9.158 0s2.53-6.628 0-9.158l-21.324-21.324c-2.53-2.53-6.629-2.53-9.158 0z"/><path d="m63.948 382.557h46.526c3.577 0 6.476-2.899 6.476-6.476s-2.899-6.476-6.476-6.476h-46.526c-24.797 0-44.97-20.198-44.97-45.023 0-12.963 5.469-25 15.402-33.895 8.963-8.03 20.251-12.163 30.257-11.063 1.824.202 3.661-.412 5.032-1.642 1.371-1.227 2.155-3.008 2.155-4.85 0-12.487 5.356-24.398 14.696-32.678 9.456-8.381 21.757-12.136 34.681-10.58 2.001.235 4.012-.539 5.421-1.981 1.189-1.219 1.847-2.899 1.847-4.594 0-.314-.023-.63-.068-.941 0-42.139 34.307-76.421 76.474-76.421 68.529 0 101.755 82.851 54.08 130.526-2.53 2.53-2.53 6.628 0 9.158 1.265 1.265 2.922 1.897 4.579 1.897s3.314-.632 4.579-1.897c15.742-15.742 24.302-35.945 25.824-56.577 17.97-1.122 35.885 4.848 49.845 16.957 15.472 13.426 24.347 32.814 24.347 53.192 0 38.635-31.39 70.22-69.945 70.41h-4.817c-3.577 0-6.476 2.899-6.476 6.476s2.899 6.476 6.476 6.476h4.85c45.691-.225 82.864-37.621 82.864-83.363 0-24.135-10.501-47.088-28.812-62.975-16.307-14.152-37.219-21.344-58.247-20.241-3.261-46.093-42.037-82.993-89.149-82.993-47.366 0-86.249 36.994-89.242 83.591-.058-.003-.116-.003-.175-.003-13.952 0-27.069 4.918-37.53 14.19-10.448 9.262-17.054 22.03-18.67 35.792-11.647.589-23.773 5.755-33.52 14.483-12.712 11.387-19.712 26.849-19.712 43.543.001 31.969 25.985 57.978 57.924 57.978z"/><path d="m272.833 353.811h-50.055l-.142-89.566c-.005-2.851-1.875-5.366-4.604-6.19-2.735-.827-5.679.235-7.261 2.608l-88.071 132.09c-1.326 1.986-1.45 4.541-.321 6.648 1.126 2.105 3.322 3.42 5.71 3.42h50.432l-18.025 95.488c-.557 2.952.989 5.897 3.731 7.119 2.757 1.222 5.975.388 7.787-1.994l105.972-139.224c1.49-1.961 1.743-4.594.65-6.8-1.092-2.203-3.341-3.599-5.803-3.599zm-94.524 119.967 14.39-76.231c.357-1.895-.149-3.85-1.379-5.335-1.229-1.482-3.059-2.343-4.986-2.343h-46.142l69.525-104.277.119 74.706c.005 3.572 2.904 6.466 6.476 6.466h43.452z"/><path d="m89.209 455.707c4.167-13.099-5.705-47.133-7.726-53.822-.617-2.044-2.203-3.653-4.237-4.301-2.029-.64-4.258-.25-5.943 1.063-5.512 4.293-33.229 26.373-37.396 39.47-4.847 15.245 3.61 31.592 18.857 36.445 15.345 4.879 31.597-3.613 36.445-18.855zm-42.957-13.664c1.761-5.545 14.202-17.547 25.453-27.039 3.704 14.243 6.927 31.223 5.158 36.776-2.695 8.485-11.721 13.127-20.173 10.436-8.439-2.684-13.122-11.733-10.438-20.173z"/><path d="m285.025 474.562c15.218 4.835 31.583-3.578 36.445-18.855 4.167-13.099-5.705-47.133-7.726-53.822-.62-2.044-2.203-3.653-4.237-4.301-2.031-.64-4.255-.25-5.943 1.063-5.512 4.293-33.229 26.373-37.398 39.473-4.846 15.244 3.614 31.592 18.859 36.442zm-6.517-32.519c1.766-5.545 14.205-17.547 25.458-27.039 3.704 14.243 6.927 31.223 5.158 36.776-2.682 8.437-11.718 13.125-20.173 10.436-8.439-2.684-13.125-11.733-10.443-20.173z"/></g></g></g><g id="Layer_1"/></svg>