<svg enable-background="new 0 0 512 512" viewBox="0 0 512 512" xmlns="http://www.w3.org/2000/svg"><g id="_x31_8_Thunderstorm"><g><path d="m139.485 430.019c-3.776 11.874-16.434 18.422-28.309 14.645-11.851-3.769-18.425-16.434-14.649-28.307 3.768-11.849 35.204-36.324 35.204-36.324s11.522 38.137 7.754 49.986z" fill="#fefdfe"/><path d="m406.802 410.415c-3.776 11.874-16.434 18.422-28.309 14.645-11.851-3.769-18.425-16.434-14.649-28.307 3.768-11.849 35.204-36.324 35.204-36.324s11.522 38.137 7.754 49.986z" fill="#fefdfe"/><path d="m327.751 488.97c-2.974 9.351-12.942 14.508-22.295 11.534-9.333-2.968-14.511-12.942-11.537-22.293 2.968-9.332 27.724-28.607 27.724-28.607s9.076 30.034 6.108 39.366z" fill="#fefdfe"/><path d="m499.487 215.826c0 53.565-43.405 97.069-97.069 97.069-17.56 0-34.033-4.636-48.239-12.824-29.198 74.422-134.251 76.59-166.122 3.058-18.545 20.026-44.983 32.455-74.281 32.455-56.032 0-101.311-45.378-101.311-101.31 0-31.173 14.008-58.992 36.204-77.537-13.347-58.215 51.015-102.904 100.817-71.126 13.909-43.504 54.65-74.972 102.79-74.972 65.858 0 114.813 58.557 107.625 117.884 64.234-31.13 139.586 15.317 139.586 87.303z" fill="#b8daff"/><path d="m222.376 497.661 19.471-103.166h-58.243l88.072-132.091.149 96.033h56.523z" fill="#fefdfe"/><g fill="#3f8cf4"><path d="m457.493 128.185c-27.436-17.188-60.541-20.588-90.446-9.72.914-59.914-49.743-114.292-114.778-114.292-47.295 0-89.063 28.628-106.293 72.024-23.96-11.966-51.824-9.897-74.412 6.001-23.674 16.672-34.95 44.034-30.004 72.141-22.64 20.36-35.547 49.271-35.547 79.927 0 59.451 48.342 107.821 107.766 107.821 26.806 0 52.727-10.114 72.444-28.02 2.575 4.706 5.482 9.112 8.687 13.17 2.219 2.808 6.287 3.284 9.095 1.073 2.808-2.221 3.286-6.289 1.07-9.097-4.349-5.51-8.07-11.789-11.06-18.67-.873-2.009-2.699-3.441-4.855-3.805-2.163-.364-4.356.385-5.839 1.988-17.878 19.323-43.225 30.409-69.542 30.409-52.279 0-94.813-42.557-94.813-94.868 0-28.111 12.335-54.553 33.841-72.54 1.87-1.563 2.702-4.038 2.16-6.411-5.538-24.221 3.678-48.178 24.054-62.522 20.438-14.395 46.098-15.052 66.97-1.71 1.692 1.078 3.795 1.316 5.685.632 1.89-.683 3.357-2.201 3.969-4.119 13.497-42.152 52.327-70.471 96.624-70.471 60.828 0 108.044 54.08 101.183 110.614-.286 2.353.736 4.67 2.664 6.051 1.93 1.371 4.458 1.594 6.59.557 28.326-13.737 61.191-11.931 87.911 4.812 26.561 16.646 42.418 45.304 42.418 76.664 0 49.964-40.652 90.613-90.618 90.613-15.847 0-31.408-4.144-45.001-11.981-1.632-.941-3.6-1.123-5.376-.501-1.778.622-3.198 1.988-3.888 3.744-4.604 11.723-11.349 21.873-20.046 30.166-2.588 2.464-2.684 6.567-.218 9.153 2.467 2.591 6.567 2.692 9.158.218 8.381-7.989 15.187-17.446 20.289-28.172 13.957 6.775 29.402 10.327 45.082 10.327 57.108 0 103.571-46.458 103.571-103.566-.001-35.849-18.129-68.61-48.495-87.64z"/><path d="m109.214 450.839c15.177 4.826 31.573-3.547 36.442-18.857 4.164-13.104-5.705-47.131-7.726-53.82-.62-2.044-2.203-3.653-4.237-4.301-2.034-.638-4.255-.248-5.943 1.063-5.512 4.291-33.232 26.371-37.396 39.47-4.847 15.245 3.611 31.593 18.86 36.445zm-6.514-32.518c1.763-5.545 14.202-17.547 25.453-27.039 3.704 14.243 6.927 31.223 5.158 36.774-2.68 8.437-11.648 13.136-20.173 10.438-8.439-2.682-13.122-11.734-10.438-20.173z"/><path d="m376.529 431.233c15.39 4.88 31.605-3.63 36.445-18.852h.003c4.164-13.099-5.707-47.136-7.729-53.825-.617-2.044-2.203-3.653-4.237-4.301-2.029-.643-4.253-.248-5.943 1.063-5.513 4.291-33.232 26.371-37.396 39.47-4.848 15.245 3.609 31.593 18.857 36.445zm-6.512-32.518c1.761-5.545 14.2-17.547 25.453-27.039 3.701 14.248 6.924 31.233 5.163 36.779-2.707 8.506-11.763 13.129-20.178 10.433-8.44-2.682-13.122-11.734-10.438-20.173z"/><path d="m323.607 443.432c-2.031-.638-4.255-.243-5.943 1.063-6.178 4.812-26.599 21.316-29.918 31.754-4.045 12.73 3.018 26.376 15.748 30.429 12.826 4.07 26.379-3.021 30.429-15.746 3.317-10.433-3.815-35.706-6.079-43.199-.617-2.044-2.203-3.653-4.237-4.301zm-2.029 43.574c-1.861 5.857-8.113 9.242-14.157 7.326-5.925-1.882-9.214-8.237-7.329-14.157 1.128-3.557 9.186-11.713 17.949-19.247 2.804 11.213 4.668 22.526 3.537 26.078z"/><path d="m334.151 355.561c-1.093-2.206-3.342-3.602-5.803-3.602h-50.055l-.142-89.566c-.005-2.854-1.875-5.363-4.604-6.188-2.732-.825-5.679.233-7.261 2.606l-88.071 132.092c-1.326 1.988-1.45 4.544-.321 6.648 1.126 2.105 3.322 3.42 5.71 3.42h50.432l-18.025 95.491c-.557 2.95.989 5.895 3.731 7.114 2.737 1.222 5.965.402 7.787-1.993l105.972-139.227c1.49-1.958 1.743-4.589.65-6.795zm-100.327 116.367 14.39-76.234c.357-1.892-.149-3.845-1.379-5.333-1.23-1.482-3.059-2.343-4.986-2.343h-46.142l69.525-104.279.119 74.706c.005 3.572 2.904 6.466 6.476 6.466h43.452z"/></g></g></g><g id="Layer_1"/></svg>