<svg enable-background="new 0 0 512 512" viewBox="0 0 512 512" xmlns="http://www.w3.org/2000/svg"><g id="_x31_1_Snowing"><g><path d="m457.769 190.472c0 47.351-38.312 85.663-85.546 85.663-43.183 0 123.76 0-260.605 0-31.723 0-57.381-25.658-57.381-57.381 0-35.423 32.261-60.226 58.897-57.264v-.058c0-32.646 28.232-59.591 63.095-55.34-.058-.408-.058-.816-.058-1.225 0-51.025 41.344-92.369 92.486-92.369 51.025 0 92.369 41.344 92.369 92.369v.816c50.272-7.183 96.743 32.636 96.743 84.789z" fill="#b8daff"/><g fill="#3f8cf4"><path d="m200.133 487.564c1.789 3.098 5.757 4.157 8.847 2.37l22.741-13.129v22.715c0 3.577 2.899 6.476 6.476 6.476s6.476-2.899 6.476-6.476v-22.716l22.743 13.131c3.095 1.79 7.061.724 8.847-2.37 1.789-3.096.726-7.058-2.37-8.847l-22.742-13.13 19.674-11.359c3.096-1.789 4.159-5.75 2.37-8.847-1.789-3.096-5.755-4.162-8.847-2.37l-19.674 11.359v-26.262c0-3.577-2.899-6.476-6.476-6.476s-6.476 2.899-6.476 6.476v26.261l-19.672-11.358c-3.091-1.791-7.058-.726-8.847 2.37s-.726 7.058 2.37 8.847l19.674 11.359-22.742 13.13c-3.098 1.788-4.161 5.749-2.372 8.846z"/><path d="m304.807 406.217c1.789 3.098 5.757 4.157 8.847 2.37l22.743-13.13v22.718c0 3.577 2.899 6.476 6.476 6.476s6.476-2.899 6.476-6.476v-22.719l22.743 13.131c3.095 1.789 7.061.724 8.847-2.37 1.789-3.096.726-7.058-2.37-8.847l-22.743-13.13 19.674-11.358c3.097-1.789 4.159-5.75 2.37-8.847-1.789-3.099-5.753-4.156-8.847-2.37l-19.674 11.359v-26.262c0-3.577-2.899-6.476-6.476-6.476s-6.476 2.899-6.476 6.476v26.261l-19.672-11.358c-3.091-1.786-7.056-.729-8.847 2.37-1.789 3.097-.726 7.058 2.37 8.847l19.673 11.358-22.744 13.131c-3.096 1.788-4.159 5.75-2.37 8.846z"/><path d="m124.926 383.1c1.789 3.098 5.757 4.157 8.847 2.37l22.743-13.13v22.716c0 3.577 2.899 6.476 6.476 6.476s6.476-2.899 6.476-6.476v-22.716l22.743 13.131c3.095 1.789 7.061.724 8.847-2.37 1.789-3.097.726-7.058-2.37-8.847l-22.743-13.13 19.674-11.358c3.096-1.789 4.159-5.75 2.37-8.847-1.789-3.099-5.755-4.159-8.847-2.37l-19.674 11.359v-26.262c0-3.577-2.899-6.476-6.476-6.476s-6.476 2.899-6.476 6.476v26.261l-19.672-11.358c-3.094-1.789-7.058-.729-8.847 2.37-1.789 3.097-.726 7.058 2.37 8.847l19.673 11.358-22.744 13.131c-3.096 1.787-4.159 5.748-2.37 8.845z"/><path d="m432.434 120.868c-18.205-15.796-41.585-23.722-65.09-22.316-3.204-50.786-45.352-92.549-98.676-92.549-52.661 0-95.848 41.302-98.797 93.184-15.647-.22-30.462 5.186-42.203 15.584-11.68 10.344-19.004 24.651-20.656 40.04-12.986.491-26.596 6.211-37.52 15.991-14.023 12.553-21.746 29.579-21.746 47.938 0 35.225 28.658 63.883 63.883 63.883h261c50.523-.223 91.625-41.57 91.625-92.172 0-26.672-11.597-52.034-31.82-69.583zm-59.833 148.802h-260.972c-28.084 0-50.93-22.847-50.93-50.93 0-14.627 6.19-28.223 17.433-38.286 9.264-8.293 22.02-13.885 34.287-12.528 1.824.218 3.663-.407 5.032-1.637 1.374-1.23 2.158-3.01 2.158-4.852 0-14.124 6.067-27.598 16.646-36.966 10.701-9.474 24.638-13.719 39.197-11.938 1.971.225 3.952-.673 5.363-2.08 1.407-1.409 2.087-3.618 1.847-5.593 0-47.366 38.582-85.903 86.007-85.903 76.797 0 114.445 93.179 60.761 146.702-2.535 2.525-2.54 6.626-.015 9.16 1.265 1.267 2.927 1.902 4.587 1.902 1.655 0 3.309-.63 4.571-1.89 17.068-17.017 27.048-39.282 28.665-63.185 20.436-1.479 40.842 5.237 56.707 19.004 17.387 15.088 27.358 36.885 27.358 59.8-.002 43.491-35.318 79.028-78.702 79.22z"/></g></g></g><g id="Layer_1"/></svg>