<svg enable-background="new 0 0 512 512" viewBox="0 0 512 512" xmlns="http://www.w3.org/2000/svg"><g id="_x30_8_Rain_Showers"><g><ellipse cx="326.231" cy="162.471" fill="#fefdfe" rx="78.592" ry="78.592" transform="matrix(.23 -.973 .973 .23 93.154 442.646)"/><path d="m99.616 411.504c-3.415 10.737-14.861 16.659-25.599 13.244-10.717-3.408-16.662-14.861-13.248-25.598 3.408-10.715 31.834-32.847 31.834-32.847s10.42 34.486 7.013 45.201z" fill="#fefdfe"/><path d="m309.644 411.504c-3.415 10.737-14.861 16.659-25.599 13.244-10.716-3.408-16.662-14.861-13.247-25.598 3.408-10.715 31.834-32.847 31.834-32.847s10.419 34.486 7.012 45.201z" fill="#fefdfe"/><path d="m204.63 411.504c-3.415 10.737-14.861 16.659-25.599 13.244-10.716-3.408-16.662-14.861-13.247-25.598 3.408-10.715 31.834-32.847 31.834-32.847s10.419 34.486 7.012 45.201z" fill="#fefdfe"/><path d="m140.111 485.298c-3.415 10.737-14.861 16.659-25.599 13.244-10.716-3.408-16.662-14.861-13.247-25.598 3.408-10.715 31.834-32.847 31.834-32.847s10.42 34.487 7.012 45.201z" fill="#fefdfe"/><path d="m245.125 485.298c-3.415 10.737-14.861 16.659-25.599 13.244-10.716-3.408-16.662-14.861-13.247-25.598 3.408-10.715 31.834-32.847 31.834-32.847s10.42 34.487 7.012 45.201z" fill="#fefdfe"/><path d="m363.275 271.742c0 38.425-31.09 69.515-69.421 69.515-35.043 0 100.431 0-211.48 0-25.743 0-46.564-20.821-46.564-46.564 0-28.745 26.18-48.873 47.795-46.47v-.047c0-26.492 22.91-48.358 51.202-44.908-.047-.331-.047-.663-.047-.994 0-41.406 33.551-74.957 75.052-74.957 41.406 0 74.957 33.551 74.957 74.957v.663c40.795-5.83 78.506 26.483 78.506 68.805z" fill="#b8daff"/><g fill="#3f8cf4"><path d="m380.077 228.354c19.852-16.229 31.236-40.247 31.236-65.892 0-46.911-38.162-85.073-85.073-85.073-27.239 0-53.007 13.168-68.928 35.223-2.092 2.899-1.439 6.947 1.462 9.042 2.902 2.095 6.947 1.442 9.042-1.462 13.492-18.69 35.332-29.849 58.424-29.849 39.766 0 72.12 32.354 72.12 72.12 0 21.744-9.651 42.104-26.48 55.864-2.77 2.264-3.18 6.345-.916 9.112 2.268 2.774 6.353 3.175 9.113.915z"/><path d="m319.755 12.487v27.269c0 3.577 2.899 6.476 6.476 6.476s6.476-2.899 6.476-6.476v-27.269c0-3.577-2.899-6.476-6.476-6.476s-6.476 2.898-6.476 6.476z"/><path d="m436.864 51.838c-2.53-2.53-6.628-2.53-9.158 0l-19.283 19.282c-2.53 2.53-2.53 6.628 0 9.158s6.628 2.53 9.158 0l19.282-19.282c2.53-2.53 2.53-6.628.001-9.158z"/><path d="m448.946 168.946h27.266c3.577 0 6.476-2.899 6.476-6.476s-2.899-6.476-6.476-6.476h-27.266c-3.577 0-6.476 2.899-6.476 6.476s2.899 6.476 6.476 6.476z"/><path d="m427.706 273.104c2.53 2.53 6.628 2.53 9.158 0s2.53-6.628 0-9.158l-19.282-19.282c-2.53-2.53-6.628-2.53-9.158 0s-2.53 6.628 0 9.158z"/><path d="m215.597 51.838c-2.53 2.53-2.53 6.628 0 9.158l19.282 19.282c2.53 2.53 6.628 2.53 9.158 0s2.53-6.628 0-9.158l-19.282-19.282c-2.529-2.53-6.628-2.53-9.158 0z"/><path d="m105.788 413.464c3.82-12.019-5.148-42.954-6.985-49.033-.617-2.044-2.203-3.653-4.237-4.301-2.029-.643-4.253-.25-5.943 1.063-5.012 3.901-30.204 23.973-34.026 35.994-4.495 14.134 3.3 29.231 17.456 33.733 14.147 4.498 29.23-3.286 33.735-17.456zm-12.346-3.924v.003c-2.329 7.332-10.134 11.372-17.463 9.031-7.301-2.317-11.376-10.117-9.037-17.461 1.394-4.387 11.455-14.506 22.075-23.535 3.456 13.5 5.822 27.57 4.425 31.962z"/><path d="m304.594 360.13c-2.034-.643-4.258-.25-5.943 1.063-5.012 3.901-30.204 23.973-34.026 35.994-4.495 14.134 3.3 29.231 17.456 33.733 14.086 4.475 29.237-3.31 33.735-17.453 3.823-12.019-5.148-42.956-6.985-49.036-.617-2.044-2.203-3.653-4.237-4.301zm-1.123 49.41c-2.317 7.306-10.145 11.364-17.463 9.034-7.301-2.317-11.376-10.117-9.037-17.461 1.394-4.387 11.455-14.506 22.075-23.535 3.456 13.5 5.821 27.57 4.425 31.962z"/><path d="m210.803 413.467c3.823-12.019-5.148-42.956-6.985-49.036-.617-2.044-2.203-3.653-4.237-4.301-2.029-.643-4.258-.25-5.943 1.063-5.012 3.901-30.206 23.973-34.029 35.997-4.485 14.111 3.347 29.242 17.458 33.73 14.122 4.49 29.22-3.264 33.736-17.453zm-12.345-3.927c-2.324 7.316-10.115 11.379-17.463 9.034-7.306-2.322-11.361-10.157-9.039-17.461 1.394-4.387 11.455-14.506 22.078-23.538 3.455 13.505 5.823 27.573 4.424 31.965z"/><path d="m112.547 504.715c14.16 4.502 29.233-3.297 33.735-17.453 0 0 0 0 0-.003 3.82-12.019-5.146-42.956-6.982-49.036-.617-2.044-2.203-3.653-4.237-4.301-2.031-.638-4.255-.253-5.943 1.063-5.012 3.901-30.206 23.975-34.029 35.994-4.495 14.136 3.301 29.234 17.456 33.736zm-5.11-29.809c1.394-4.384 11.453-14.504 22.075-23.535 3.456 13.509 5.821 27.58 4.425 31.964v.003c-2.351 7.396-10.211 11.349-17.463 9.031-7.319-2.322-11.372-10.134-9.037-17.463z"/><path d="m217.563 504.715c14.091 4.477 29.236-3.316 33.735-17.453 3.823-12.019-5.148-42.959-6.985-49.038-.617-2.044-2.203-3.653-4.237-4.301-2.029-.638-4.255-.253-5.943 1.063-5.012 3.901-30.206 23.975-34.029 35.997-4.485 14.111 3.348 29.244 17.459 33.732zm-5.113-29.809c1.394-4.384 11.455-14.504 22.075-23.535 3.456 13.507 5.824 27.58 4.427 31.964-2.322 7.304-10.155 11.359-17.463 9.034-7.306-2.322-11.361-10.157-9.039-17.463z"/><path d="m369.76 271.73c0-22.002-9.568-42.921-26.249-57.397-14.711-12.766-33.523-19.366-52.494-18.48-3.288-42.155-38.921-74.994-81.195-74.994-43.01 0-78.351 33.406-81.347 75.586-12.583.083-24.408 4.556-33.872 12.93-9.451 8.361-15.47 19.846-17.054 32.253-23.784 1.511-48.239 23.394-48.239 53.056 0 29.255 23.801 53.056 53.056 53.056h211.83c41.667-.173 75.564-34.27 75.564-76.01zm-75.591 63.056h-211.802c-22.113 0-40.103-17.99-40.103-40.103 0-24.429 22.408-42.049 40.634-40.035 1.816.2 3.661-.41 5.032-1.642 1.371-1.227 2.155-3.008 2.155-4.85 0-11.116 4.774-21.714 13.099-29.08 8.412-7.445 19.361-10.772 30.823-9.36 2.016.256 4.002-.519 5.414-1.956s2.08-3.514 1.801-5.507c0-37.74 30.773-68.442 68.599-68.442 60.805 0 91.478 73.898 48.436 116.944-2.53 2.53-2.53 6.628 0 9.158s6.628 2.53 9.158 0c14.21-14.21 22.012-32.409 23.507-51.025 15.909-.86 31.736 4.498 44.098 15.228 13.846 12.014 21.787 29.369 21.787 47.614 0 34.629-28.111 62.915-62.638 63.056z"/></g></g></g><g id="Layer_1"/></svg>