<svg enable-background="new 0 0 512 512" viewBox="0 0 512 512" xmlns="http://www.w3.org/2000/svg"><g id="_x32_3_Fog"><g><path d="m278.025 368.094c0 7.594-6.156 13.75-13.75 13.75h-84.132c-7.594 0-13.75-6.156-13.75-13.75 0-7.594 6.156-13.75 13.75-13.75h84.132c7.593 0 13.75 6.156 13.75 13.75z" fill="#fefdfe"/><path d="m404.429 424.893c0 7.594-6.156 13.75-13.75 13.75h-122.627c-7.594 0-13.75-6.156-13.75-13.75 0-7.594 6.156-13.75 13.75-13.75h122.627c7.594 0 13.75 6.156 13.75 13.75z" fill="#fefdfe"/><path d="m362.854 368.094c0 7.594-6.156 13.75-13.75 13.75h-15.546c-7.594 0-13.75-6.156-13.75-13.75 0-7.594 6.156-13.75 13.75-13.75h15.546c7.594 0 13.75 6.156 13.75 13.75z" fill="#fefdfe"/><path d="m439.829 485.768c0 7.594-6.156 13.75-13.75 13.75h-43.3c-7.594 0-13.75-6.156-13.75-13.75 0-7.594 6.156-13.75 13.75-13.75h43.3c7.594 0 13.75 6.156 13.75 13.75z" fill="#fefdfe"/><path d="m337.178 485.768c0 7.594-6.156 13.75-13.75 13.75h-94.344c-7.594 0-13.75-6.156-13.75-13.75 0-7.594 6.156-13.75 13.75-13.75h94.344c7.593 0 13.75 6.156 13.75 13.75z" fill="#fefdfe"/><path d="m478.408 368.094c0 7.594-6.156 13.75-13.75 13.75h-43.3c-7.594 0-13.75-6.156-13.75-13.75 0-7.594 6.156-13.75 13.75-13.75h43.3c7.593 0 13.75 6.156 13.75 13.75z" fill="#fefdfe"/><path d="m217.051 424.893c0 7.594-6.156 13.75-13.75 13.75h-15.546c-7.594 0-13.75-6.156-13.75-13.75 0-7.594 6.156-13.75 13.75-13.75h15.545c7.594 0 13.751 6.156 13.751 13.75z" fill="#fefdfe"/><path d="m478.408 208.682c0 52.196-42.233 94.429-94.3 94.429-47.602 0 136.425 0-287.272 0-34.969 0-63.253-28.283-63.253-63.252 0-39.047 35.563-66.389 64.924-63.124v-.064c0-35.987 31.121-65.689 69.552-61.003-.064-.45-.064-.9-.064-1.35 0-56.246 45.575-101.821 101.95-101.821 56.246 0 101.821 45.575 101.821 101.821v.9c55.415-7.919 106.642 35.975 106.642 93.464z" fill="#b8daff"/><g fill="#3f8cf4"><path d="m27.118 239.877c0 38.423 31.284 69.687 69.737 69.687h287.679c55.325-.223 100.333-45.471 100.333-100.874 0-29.25-12.715-57.053-34.886-76.279-20.102-17.436-45.977-26.148-71.92-24.357-3.261-56.842-50.781-102.049-108.105-102.049-57.91 0-105.365 45.587-108.297 102.726-17.433-.334-33.692 5.49-46.663 16.96-12.907 11.42-20.947 27.277-22.629 44.312-31.721.841-65.249 30.054-65.249 69.874zm70.678-56.718c1.852.207 3.661-.41 5.034-1.639 1.374-1.224 2.158-3.01 2.158-4.852 0-15.776 6.775-30.823 18.589-41.272 11.933-10.559 27.449-15.26 43.675-13.282 1.943.258 3.929-.425 5.335-1.816 1.409-1.386 2.105-3.344 1.892-5.308-.025-.223-.013-.45-.013-.648 0-52.595 42.835-95.385 95.488-95.385 52.565 0 95.331 42.789 95.331 95.385v.88c0 .009.003.018.003.028-.226 25.142-10.087 48.757-27.897 66.567-2.53 2.53-2.53 6.628 0 9.158 1.265 1.265 2.922 1.897 4.579 1.897s3.314-.632 4.579-1.897c18.848-18.85 29.776-43.436 31.403-69.803 22.882-1.815 45.778 5.621 63.539 21.023 19.333 16.763 30.421 40.998 30.421 66.494 0 48.289-39.222 87.729-87.405 87.922h-287.652c-31.312 0-56.784-25.45-56.784-56.734-.001-34.55 31.557-59.637 57.725-56.718z"/><path d="m264.274 388.323c11.151 0 20.226-9.072 20.226-20.228s-9.074-20.228-20.226-20.228h-84.132c-11.151 0-20.226 9.072-20.226 20.228s9.074 20.228 20.226 20.228zm-91.405-20.229c0-4.012 3.263-7.276 7.273-7.276h84.132c4.01 0 7.273 3.263 7.273 7.276s-3.263 7.276-7.273 7.276h-84.132c-4.01 0-7.273-3.264-7.273-7.276z"/><path d="m410.905 424.894c0-11.157-9.074-20.229-20.226-20.229h-122.628c-11.151 0-20.226 9.072-20.226 20.229 0 11.151 9.074 20.223 20.226 20.223h122.628c11.152 0 20.226-9.072 20.226-20.223zm-150.127 0c0-4.012 3.263-7.276 7.273-7.276h122.628c4.01 0 7.273 3.263 7.273 7.276 0 4.007-3.263 7.271-7.273 7.271h-122.628c-4.01-.001-7.273-3.264-7.273-7.271z"/><path d="m349.104 388.323c11.151 0 20.226-9.072 20.226-20.228s-9.074-20.228-20.226-20.228h-15.546c-11.151 0-20.226 9.072-20.226 20.228s9.074 20.228 20.226 20.228zm-22.819-20.229c0-4.012 3.263-7.276 7.273-7.276h15.546c4.01 0 7.273 3.263 7.273 7.276s-3.263 7.276-7.273 7.276h-15.546c-4.01 0-7.273-3.264-7.273-7.276z"/><path d="m382.778 505.995h43.301c11.151 0 20.226-9.072 20.226-20.228 0-11.151-9.074-20.223-20.226-20.223h-43.301c-11.151 0-20.226 9.072-20.226 20.223 0 11.156 9.075 20.228 20.226 20.228zm0-27.499h43.301c4.01 0 7.273 3.263 7.273 7.271 0 4.012-3.263 7.276-7.273 7.276h-43.301c-4.01 0-7.273-3.263-7.273-7.276 0-4.008 3.264-7.271 7.273-7.271z"/><path d="m229.084 505.995h94.342c11.154 0 20.228-9.072 20.228-20.228 0-11.151-9.074-20.223-20.228-20.223h-94.342c-11.151 0-20.226 9.072-20.226 20.223 0 11.156 9.074 20.228 20.226 20.228zm0-27.499h94.342c4.012 0 7.276 3.263 7.276 7.271 0 4.012-3.263 7.276-7.276 7.276h-94.342c-4.01 0-7.273-3.263-7.273-7.276 0-4.008 3.263-7.271 7.273-7.271z"/><path d="m484.882 368.094c0-11.157-9.072-20.228-20.223-20.228h-43.301c-11.154 0-20.229 9.072-20.229 20.228s9.074 20.228 20.229 20.228h43.301c11.151.001 20.223-9.071 20.223-20.228zm-70.799 0c0-4.012 3.263-7.276 7.276-7.276h43.301c4.007 0 7.271 3.263 7.271 7.276s-3.263 7.276-7.271 7.276h-43.301c-4.013 0-7.276-3.264-7.276-7.276z"/><path d="m187.754 445.117h15.546c11.151 0 20.226-9.072 20.226-20.223 0-11.157-9.074-20.229-20.226-20.229h-15.546c-11.151 0-20.226 9.072-20.226 20.229 0 11.151 9.075 20.223 20.226 20.223zm0-27.499h15.546c4.01 0 7.273 3.263 7.273 7.276 0 4.007-3.263 7.271-7.273 7.271h-15.546c-4.01 0-7.273-3.263-7.273-7.271 0-4.013 3.263-7.276 7.273-7.276z"/></g></g></g><g id="Layer_1"/></svg>